<svg width="152" height="153" viewBox="0 0 152 153" fill="none" xmlns="http://www.w3.org/2000/svg">
<rect width="152" height="152" transform="translate(0 0.5)" fill="white"/>
<path d="M76 74.625C73.375 74.625 71.5 76.6875 71.5 79.125C71.6875 92.8125 69.8125 105.75 66.25 118.875C65.6875 120.75 66.625 124.5 70.5625 124.5C72.625 124.5 74.3125 123.375 74.875 121.312C77.5 112.312 80.6875 97.875 80.5 79.125C80.5 76.6875 78.4375 74.625 76 74.625ZM75.8125 59.4375C64.375 59.4375 56.3125 68.25 56.5 78.375C56.5 87.375 55.75 96.375 53.875 105C53.5 107.438 55 109.875 57.4375 110.438C59.875 110.812 62.3125 109.312 62.6875 106.875C64.75 97.5 65.5 87.9375 65.5 78.1875C65.3125 73.3125 69.25 68.4375 75.625 68.4375C81.4375 68.4375 86.3125 73.125 86.5 78.75C86.5 87.75 85.9375 96.9375 84.4375 105.75C84.0625 108.188 85.75 110.438 88.1875 110.812C91.9375 111.562 93.25 108 93.25 107.25C94.9375 97.875 95.5 88.125 95.5 78.5625C95.3125 68.25 86.5 59.625 75.8125 59.4375ZM55 55.6875C53.125 54.1875 50.3125 54.375 48.625 56.25C43.9375 62.25 41.3125 69.75 41.5 77.25C41.5 84.375 40.9375 91.5 39.625 98.25C39.25 100.875 40.9375 103.125 43.375 103.5C47.125 104.25 48.4375 100.875 48.625 99.9375C49.9375 92.4375 50.5 84.75 50.5 77.25C50.3125 71.625 52.1875 66.375 55.75 62.0625C57.25 60 56.875 57.1875 55 55.6875ZM75.625 44.0625C72.625 43.875 69.8125 44.25 67 45C64.5625 45.5625 63.0625 48 63.625 50.25C64.1875 52.6875 66.625 54.1875 69.0625 53.625C71.125 53.25 73.1875 53.0625 75.4375 53.0625C89.5 53.25 101.312 64.5 101.5 78.1875C101.5 85.3125 101.125 92.4375 100.375 99.5625C100.188 102 101.875 104.25 104.312 104.438C107.5 104.812 109.188 102.375 109.375 100.5C110.125 93.9375 110.5 87.375 110.5 80.625C110.5 79.6875 110.5 78.9375 110.5 78C110.125 59.625 94.5625 44.25 75.625 44.0625ZM122.875 66.75C122.312 64.3125 119.875 62.8125 117.438 63.375C115 63.9375 113.5 66.1875 114.062 68.625C114.812 72.75 115 75.75 114.812 80.25C114.812 82.6875 116.875 84.75 119.312 84.75C121.938 84.75 123.812 82.875 123.812 80.25C124 76.125 124 72 122.875 66.75ZM115.188 49.6875C106.188 36.75 91.1875 28.875 75.25 28.6875C62.3125 28.5 50.125 33.1875 41.125 42.1875C32.5 51 27.8125 62.625 28 74.8125V78.9375C27.8125 81.375 29.875 83.4375 32.3125 83.4375C32.3125 83.4375 32.3125 83.4375 32.5 83.4375C34.75 83.4375 36.8125 81.5625 36.8125 79.125L37 74.625C36.8125 64.875 40.5625 55.6875 47.5 48.5625C54.8125 41.4375 64.5625 37.5 75.25 37.6875C88.1875 37.875 100.375 44.25 107.875 54.9375C109.375 57 112.188 57.375 114.25 56.0625C116.125 54.5625 116.688 51.75 115.188 49.6875Z" fill="#E74011"/>
</svg>
