<svg width="152" height="153" viewBox="0 0 152 153" fill="none" xmlns="http://www.w3.org/2000/svg">
<rect width="152" height="152" transform="translate(0 0.5)" fill="white"/>
<path d="M125.5 40.5H43C39.0625 40.5 35.6875 43.125 34.375 46.5H26.5C23.875 46.5 22 48.5625 22 51V102C22 107.812 26.6875 112.5 32.5 112.5H125.5C127.938 112.5 130 110.625 130 108V45C130 42.5625 127.938 40.5 125.5 40.5ZM31 102V55.5H34V102C34 102.938 33.25 103.5 32.5 103.5C31.5625 103.5 31 102.938 31 102ZM121 103.5H42.8125C42.8125 103.125 43 102.562 43 102V49.5H121V103.5ZM54.25 81H79.75C80.875 81 82 80.0625 82 78.75V60.75C82 59.625 80.875 58.5 79.75 58.5H54.25C52.9375 58.5 52 59.625 52 60.75V78.75C52 80.0625 52.9375 81 54.25 81ZM59.5 66H74.5V73.5H59.5V66ZM52 92.25C52 93.5625 52.9375 94.5 54.25 94.5H79.75C80.875 94.5 82 93.5625 82 92.25V87.75C82 86.625 80.875 85.5 79.75 85.5H54.25C52.9375 85.5 52 86.625 52 87.75V92.25ZM88 92.25C88 93.5625 88.9375 94.5 90.25 94.5H109.75C110.875 94.5 112 93.5625 112 92.25V87.75C112 86.625 110.875 85.5 109.75 85.5H90.25C88.9375 85.5 88 86.625 88 87.75V92.25ZM88 65.25C88 66.5625 88.9375 67.5 90.25 67.5H109.75C110.875 67.5 112 66.5625 112 65.25V60.75C112 59.625 110.875 58.5 109.75 58.5H90.25C88.9375 58.5 88 59.625 88 60.75V65.25ZM88 78.75C88 80.0625 88.9375 81 90.25 81H109.75C110.875 81 112 80.0625 112 78.75V74.25C112 73.125 110.875 72 109.75 72H90.25C88.9375 72 88 73.125 88 74.25V78.75Z" fill="#E74011"/>
</svg>
