<svg width="152" height="153" viewBox="0 0 152 153" fill="none" xmlns="http://www.w3.org/2000/svg">
<rect width="152" height="152" transform="translate(0 0.5)" fill="white"/>
<path d="M88.75 48L100 52.5L104.5 63.75C104.875 64.3125 105.25 64.6875 106 64.6875C106.562 64.6875 106.938 64.3125 107.312 63.75L112 52.5L123.062 48C123.625 47.625 124 47.25 124 46.5C124 45.9375 123.625 45.5625 123.062 45.1875L112 40.5L107.312 29.4375C106.938 28.875 106.562 28.5 105.812 28.5C105.25 28.5 104.875 28.875 104.5 29.4375L100 40.5L88.75 45.1875C88.1875 45.5625 87.8125 45.9375 87.8125 46.6875C87.8125 47.25 88.1875 47.625 88.75 48ZM123.062 105.188L112 100.5L107.312 89.4375C106.938 88.875 106.562 88.5 105.812 88.5C105.25 88.5 104.875 88.875 104.5 89.4375L100 100.5L88.75 105.188C88.1875 105.562 87.8125 105.938 87.8125 106.688C87.8125 107.25 88.1875 107.625 88.75 108L100 112.5L104.5 123.75C104.875 124.312 105.25 124.688 106 124.688C106.562 124.688 106.938 124.312 107.312 123.75L112 112.5L123.062 108C123.625 107.625 124 107.25 124 106.5C124 105.938 123.625 105.562 123.062 105.188ZM100 76.5C99.8125 74.8125 98.875 73.3125 97.375 72.5625L77.6875 62.8125L67.9375 43.125C66.4375 40.125 61.375 40.125 59.875 43.125L50.125 62.8125L30.4375 72.5625C28.9375 73.3125 27.8125 74.8125 27.8125 76.6875C27.8125 78.375 28.9375 79.875 30.4375 80.625L50.125 90.375L59.875 110.062C60.625 111.562 62.125 112.688 64 112.688C65.6875 112.688 67.1875 111.562 67.9375 110.062L77.6875 90.375L97.375 80.625C98.875 79.875 99.8125 78.375 100 76.5ZM72.4375 83.0625C71.5 83.4375 70.75 84.1875 70.375 85.125L64 98.0625L57.4375 85.125C57.0625 84.1875 56.3125 83.4375 55.375 83.0625L42.4375 76.5L55.375 70.125C56.3125 69.75 57.0625 69 57.4375 68.0625L64 55.125L70.375 68.0625C70.75 69 71.5 69.75 72.4375 70.125L85.375 76.5L72.4375 83.0625Z" fill="#E74011"/>
</svg>
