<svg width="152" height="153" viewBox="0 0 152 153" fill="none" xmlns="http://www.w3.org/2000/svg">
<rect width="152" height="152" transform="translate(0 0.5)" fill="white"/>
<path d="M124 63.1875V34.6875C124 33 122.688 28.5 118 28.5C116.5 28.5 115.188 29.0625 114.25 30L98.125 42.75C90.25 49.125 80.125 52.5 70 52.5H34C27.25 52.5 22 57.9375 22 64.5V82.5C22 89.25 27.25 94.5 34 94.5L33.8125 100.5C33.8125 108 35.5 115.125 38.6875 121.312C39.625 123.375 41.6875 124.5 43.9375 124.5H63.8125C68.6875 124.5 71.6875 119.062 68.6875 115.125C65.6875 111 63.8125 106.125 63.8125 100.5C63.8125 98.4375 64.1875 96.5625 64.5625 94.5H70C80.125 94.5 90.25 98.0625 98.125 104.438L114.25 117.188C115.188 118.125 116.5 118.5 117.812 118.5C122.5 118.5 123.812 114.375 123.812 112.5V84C127.562 81.9375 129.812 78 129.812 73.6875C130 69.1875 127.562 65.25 124 63.1875ZM45.8125 115.5C43.75 110.812 42.8125 105.75 42.8125 100.5C42.8125 97.875 43.1875 95.8125 43.375 94.5H55.5625C55 96.5625 54.8125 98.625 54.8125 100.5C54.8125 105.938 56.125 111 58.375 115.5H45.8125ZM67 85.5H34C32.3125 85.5 31 84.1875 31 82.5V64.5C31 63 32.3125 61.5 34 61.5H67V85.5ZM115 106.312L103.75 97.5C95.875 91.125 86.125 87.1875 76 86.0625V61.125C86.125 60 95.875 56.0625 103.75 49.6875L115 40.875V106.312Z" fill="#E74011"/>
</svg>
