<svg width="153" height="153" viewBox="0 0 153 153" fill="none" xmlns="http://www.w3.org/2000/svg">
<rect width="152" height="152" transform="translate(0.5 0.5)" fill="white"/>
<path d="M136.125 69.1875L120.188 30.375C119.625 29.4375 118.5 28.5 117.375 28.5C117 28.5 116.625 28.6875 116.25 28.875L94.125 37.875C93.1875 38.4375 92.25 39.375 92.25 40.6875C92.25 41.0625 92.4375 41.4375 92.625 41.8125L93.1875 43.3125L30.375 73.875C28.6875 74.625 28.125 76.3125 28.6875 77.8125L30.1875 81.75L18.1875 86.8125C17.25 87.1875 16.3125 88.3125 16.3125 89.625C16.3125 90 16.5 90.375 16.6875 90.75L20.4375 99.75C20.8125 100.875 21.9375 101.625 23.25 101.625C23.625 101.625 24 101.625 24.375 101.438L36.375 96.375L38.0625 100.312C38.625 101.812 40.3125 102.562 42 102L65.8125 93.75V93.9375L57 120.562C56.8125 120.938 56.8125 121.312 56.8125 121.5C56.8125 123.188 58.125 124.5 59.8125 124.5H63C64.3125 124.5 65.4375 123.75 65.8125 122.625L73.6875 98.8125C74.625 99 75.5625 99 76.5 99C77.25 99 78.1875 99 79.125 98.8125L87 122.625C87.375 123.75 88.5 124.5 89.8125 124.5H93C94.6875 124.5 96 123.188 96 121.5C96 121.312 96 120.938 95.8125 120.562L87 93.9375C88.6875 91.6875 89.8125 88.6875 90 85.6875C90 85.5 89.8125 85.5 89.8125 85.5L108 79.125L108.562 80.625C109.125 81.75 110.25 82.5 111.375 82.5C111.75 82.5 112.125 82.5 112.5 82.3125L134.625 73.125C135.562 72.75 136.5 71.625 136.5 70.3125C136.5 69.9375 136.312 69.5625 136.125 69.1875ZM76.5 90.1875C73.875 90.1875 72 88.125 72 85.6875C72 83.0625 73.875 81.1875 76.5 81.1875C78.9375 81.1875 81 83.0625 81 85.6875C81 88.125 78.9375 90 76.5 90.1875ZM86.8125 77.0625C84.375 74.0625 80.625 72 76.3125 72C69 72 63.1875 78 63 85.3125L44.0625 91.6875L39.1875 79.6875L96.5625 51.5625L104.625 70.875L86.8125 77.0625ZM114.75 71.625L103.125 43.875L114 39.375L125.625 67.125L114.75 71.625Z" fill="#E74011"/>
</svg>
