<svg width="152" height="152" viewBox="0 0 152 152" fill="none" xmlns="http://www.w3.org/2000/svg">
<rect width="152" height="152" fill="white"/>
<path d="M65.3125 90.25L63.4375 100.375C63.0625 102.25 65.125 103.75 66.8125 102.812L75.8125 97.9375L85 102.812C86.6875 103.75 88.5625 102.25 88.375 100.375L86.5 90.25L94 82.9375C95.3125 81.625 94.5625 79.375 92.6875 79.1875L82.5625 77.6875L77.875 68.3125C77.125 66.625 74.6875 66.625 73.9375 68.3125L69.25 77.6875L58.9375 79.1875C57.25 79.375 56.5 81.625 57.8125 82.9375L65.3125 90.25ZM109 40H100V31C100 29.5 98.5 28 97 28H91C89.3125 28 88 29.5 88 31V40H64V31C64 29.5 62.5 28 61 28H55C53.3125 28 52 29.5 52 31V40H43C37.9375 40 34 44.125 34 49V115C34 120.062 37.9375 124 43 124H109C113.875 124 118 120.062 118 115V49C118 44.125 113.875 40 109 40ZM109 113.875C109 114.625 108.438 115 107.875 115H44.125C43.375 115 43 114.625 43 113.875V58H109V113.875Z" fill="#E74011"/>
</svg>
