<svg width="152" height="153" viewBox="0 0 152 153" fill="none" xmlns="http://www.w3.org/2000/svg">
<rect width="152" height="152" transform="translate(0 0.5)" fill="white"/>
<path d="M129.625 81.1875L121 47.0625C119.875 42.5625 117.062 38.8125 112.938 36.5625C109 34.5 104.125 33.9375 99.8125 35.4375L97 36.375C95.3125 36.9375 94.5625 38.625 95.125 40.125L96.0625 43.125C96.625 44.625 98.3125 45.375 99.8125 45L102.25 44.0625C104.312 43.5 106.562 43.5 108.438 44.4375C110.5 45.375 111.812 47.25 112.375 49.3125L119.5 78.1875C115.375 76.875 110.125 75.75 104.312 75.75C96.8125 75.75 88.1875 77.4375 79.375 82.5H72.4375C63.625 77.4375 55 75.75 47.5 75.75C41.6875 75.75 36.4375 76.875 32.3125 78.1875L39.4375 49.3125C40 47.25 41.3125 45.375 43.375 44.4375C45.25 43.5 47.5 43.5 49.5625 44.0625L52 45C53.5 45.375 55.1875 44.625 55.75 43.125L56.6875 40.125C57.25 38.625 56.5 36.9375 54.8125 36.375L52 35.4375C47.6875 33.9375 42.8125 34.5 38.875 36.5625C34.75 38.8125 31.9375 42.5625 30.8125 47.0625L22.1875 81.1875C22 82.125 22 83.0625 22 84V97.3125C22 109.125 31.5625 118.5 43.5625 118.5H50.5C61.75 118.5 71.125 110.062 72.0625 98.8125L72.625 91.5H79.1875L79.75 98.8125C80.6875 110.062 90.0625 118.5 101.312 118.5H108.25C120.25 118.5 130 109.125 130 97.3125V84C130 83.0625 129.812 82.125 129.625 81.1875ZM63.0625 98.0625C62.5 104.625 57.0625 109.5 50.5 109.5H43.5625C36.625 109.5 31 104.062 31 97.3125V88.125C34.5625 86.625 40.5625 84.75 47.5 84.75C53.125 84.75 58.5625 85.875 63.8125 88.3125L63.0625 98.0625ZM121 97.3125C121 104.062 115.188 109.5 108.25 109.5H101.312C94.75 109.5 89.3125 104.625 88.75 98.0625L88 88.3125C93.25 85.875 98.6875 84.75 104.312 84.75C111.25 84.75 117.25 86.625 121 88.125V97.3125Z" fill="#E74011"/>
</svg>
