<svg width="153" height="152" viewBox="0 0 153 152" fill="none" xmlns="http://www.w3.org/2000/svg">
<rect width="152" height="152" transform="translate(0.5)" fill="white"/>
<path d="M113.812 52L104.812 43.1875C102.938 41.3125 100.312 40 97.5 40H54.9375C52.125 40 49.5 41.125 47.4375 43.1875L38.625 52H16.5V100H28.5C31.6875 100 34.3125 97.375 34.3125 94H36.1875L51.9375 108.438C57.75 113.125 65.8125 113.125 71.8125 109.188C74.0625 111.062 76.6875 112 79.5 112C82.875 112 86.0625 110.688 88.6875 107.5C92.8125 109.188 97.6875 108.062 100.688 104.5L105.562 98.3125C106.5 97 107.25 95.6875 107.625 94H118.5C118.5 97.375 121.125 100 124.5 100H136.5V52H113.812ZM25.5 94C23.8125 94 22.5 92.6875 22.5 91C22.5 89.3125 23.8125 88 25.5 88C27 88 28.5 89.3125 28.5 91C28.5 92.6875 27 94 25.5 94ZM98.625 92.6875L93.5625 98.6875C93.1875 99.4375 92.25 99.4375 91.5 99.0625L87 95.3125L81.375 102.25C80.25 103.562 78.5625 103 78 102.625L71.0625 96.8125L68.25 100.375C65.625 103.562 60.9375 103.938 57.9375 101.5L39.5625 85H34.5V61H42.1875L53.8125 49.5625C54.1875 49.375 54.5625 49.1875 54.9375 49H65.625L58.3125 55.75C52.6875 60.8125 52.5 69.25 57.375 74.6875C60.1875 77.6875 69 82.375 76.5 75.625L78 74.125L98.25 90.625C99 91.1875 99 92.125 98.625 92.6875ZM118.5 85H105.375C105 84.625 104.438 84.0625 104.062 83.6875L84.75 67.9375L87 65.875C88.3125 64.75 88.3125 62.875 87.1875 61.5625L85.3125 59.5C84.1875 58.1875 82.125 58.1875 81 59.3125L70.6875 68.6875C68.8125 70.375 65.8125 70.5625 64.125 68.6875C62.4375 66.8125 62.625 64 64.3125 62.3125L76.6875 51.0625C78 49.75 79.875 49.1875 81.75 49.1875L97.5 49C97.875 49 98.25 49.1875 98.4375 49.5625L110.062 61H118.5V85ZM127.5 94C125.812 94 124.5 92.6875 124.5 91C124.5 89.3125 125.812 88 127.5 88C129 88 130.5 89.3125 130.5 91C130.5 92.6875 129 94 127.5 94Z" fill="#E74011"/>
</svg>
