<svg width="166" height="70" viewBox="0 0 166 70" fill="none" xmlns="http://www.w3.org/2000/svg">
<path fill-rule="evenodd" clip-rule="evenodd" d="M38.0308 3.50608V66.2924C38.0308 68.2312 36.4792 69.7985 34.5597 69.7985C33.5999 69.7985 32.7361 69.4107 32.1043 68.7725L1.00776 37.3632C0.383907 36.7331 0 35.8606 0 34.8992C0 33.8813 0.431896 32.9604 1.11973 32.3141L32.1043 1.02597C32.7281 0.387769 33.5999 0 34.5517 0C36.4712 0 38.0308 1.56723 38.0308 3.50608Z" fill="#e74011"/>
<path fill-rule="evenodd" clip-rule="evenodd" d="M166 41.9114C166 39.9725 164.448 38.4053 162.529 38.4053H138.399C136.479 38.4053 134.927 39.9725 134.927 41.9114C134.927 42.8808 135.319 43.7533 135.943 44.3915L160.081 68.7725C160.713 69.4026 161.577 69.7985 162.537 69.7985C164.456 69.7985 166.008 68.2312 166.008 66.2924V41.9114H166ZM166 27.8871C166 29.8259 164.448 31.3932 162.529 31.3932H138.399C136.479 31.3932 134.927 29.8259 134.927 27.8871C134.927 26.9177 135.319 26.0452 135.943 25.407L160.081 1.02597C160.697 0.387769 161.569 0 162.521 0C164.44 0 165.992 1.56723 165.992 3.50608V27.8871H166ZM93.4254 0H124.506C126.425 0 127.977 1.56723 127.977 3.50608V66.2924C127.977 68.2312 126.425 69.7985 124.506 69.7985C124.386 69.7985 124.258 69.7904 124.138 69.7823H93.7854C93.6654 69.7985 93.5454 69.7985 93.4175 69.7985C91.4979 69.7985 89.9463 68.2312 89.9463 66.2924V3.50608C89.9543 1.56723 91.5059 0 93.4254 0Z" fill="#e74011"/>
<path fill-rule="evenodd" clip-rule="evenodd" d="M76.0537 3.50608C76.0537 1.56723 74.502 0 72.5825 0H48.4523C46.5328 0 44.9811 1.56723 44.9811 3.50608C44.9811 4.4755 45.373 5.34798 45.9969 5.98619L70.1351 30.3672C70.7669 30.9973 71.6307 31.3932 72.5905 31.3932C74.51 31.3932 76.0617 29.8259 76.0617 27.8871V3.50608H76.0537ZM76.0537 41.9114V66.2843C76.0537 68.2232 74.502 69.7904 72.5825 69.7904C71.6227 69.7904 70.7589 69.4026 70.1271 68.7644L45.9889 44.3996C45.3651 43.7614 44.9731 42.8889 44.9731 41.9195C44.9731 39.9806 46.5248 38.4134 48.4443 38.4134H72.5745C74.502 38.4053 76.0537 39.9806 76.0537 41.9114Z" fill="#e74011"/>
</svg>
