<svg width="153" height="152" viewBox="0 0 153 152" fill="none" xmlns="http://www.w3.org/2000/svg">
<rect width="152" height="152" transform="translate(0.5)" fill="white"/>
<path d="M37.5 64C37.5 61.5625 35.4375 59.5 33 59.5H21C18.375 59.5 16.5 61.5625 16.5 64C16.5 66.625 18.375 68.5 21 68.5H33C35.4375 68.5 37.5 66.625 37.5 64ZM36.5625 82L26.0625 88C24.75 88.75 23.8125 90.25 23.8125 91.9375C23.8125 94.375 25.875 96.4375 28.3125 96.4375C29.0625 96.4375 30 96.0625 30.5625 95.6875L41.0625 89.6875C42.375 88.9375 43.125 87.4375 43.125 85.9375C43.125 83.3125 41.0625 81.4375 38.625 81.4375C37.875 81.4375 37.125 81.625 36.5625 82ZM41.0625 38.5L30.5625 32.5C30 32.125 29.0625 31.75 28.3125 31.75C25.875 31.75 23.8125 33.8125 23.8125 36.25C23.8125 37.9375 24.75 39.4375 26.0625 40.1875L36.5625 46.1875C37.125 46.5625 37.875 46.9375 38.8125 46.9375C41.25 46.9375 43.3125 44.875 43.3125 42.4375C43.3125 40.75 42.375 39.25 41.0625 38.5ZM114 46.75C114.938 46.75 115.688 46.5625 116.25 46.1875L126.75 40.1875C128.062 39.4375 129 37.9375 129 36.4375C129 33.8125 126.938 31.9375 124.5 31.9375C123.562 31.9375 122.812 32.125 122.25 32.5L111.75 38.5C110.438 39.25 109.5 40.75 109.5 42.4375C109.5 44.875 111.562 46.75 114 46.75ZM132 59.5H120C117.375 59.5 115.5 61.5625 115.5 64C115.5 66.625 117.375 68.5 120 68.5H132C134.438 68.5 136.5 66.625 136.5 64C136.5 61.5625 134.438 59.5 132 59.5ZM126.75 88L116.25 82C115.688 81.625 114.938 81.25 114 81.25C111.562 81.25 109.5 83.3125 109.5 85.75C109.5 87.4375 110.438 88.9375 111.75 89.6875L122.25 95.6875C122.812 96.0625 123.562 96.25 124.312 96.25C126.938 96.25 128.812 94.375 128.812 91.75C128.812 90.25 128.062 88.75 126.75 88ZM76.5 28C57.1875 28 43.5 43.5625 43.5 61V61.1875C43.5 69.4375 46.5 76.9375 51.5625 82.75C54.75 86.3125 59.625 93.8125 61.3125 100H70.3125C70.3125 99.0625 70.3125 98.3125 69.9375 97.375C69 94 65.8125 85.375 58.3125 76.9375C54.75 72.625 52.5 67.1875 52.5 61.1875C52.5 61.1875 52.5 61.1875 52.5 61C52.3125 47.3125 63.5625 37 76.5 37C89.625 37 100.312 47.875 100.312 61C100.312 67.1875 98.25 72.625 94.5 76.9375C87.1875 85.1875 83.8125 94 82.875 97.375C82.5 98.3125 82.5 99.0625 82.5 100H91.5C93.1875 93.8125 98.0625 86.3125 101.25 82.75C106.312 76.9375 109.312 69.4375 109.312 61.1875C109.312 42.8125 94.6875 28.1875 76.5 28.1875V28ZM76.5 43C66.5625 43.1875 58.5 51.25 58.5 61C58.5 62.6875 59.8125 64 61.5 64C63 64 64.5 62.6875 64.5 61C64.5 54.4375 69.75 49.1875 76.5 49C78 49 79.5 47.6875 79.5 46C79.5 44.5 78 43 76.5 43ZM61.5 114.25C61.5 114.812 61.6875 115.375 61.875 115.938L66.5625 122.688C67.125 123.625 68.0625 124 69 124H83.8125C84.75 124 85.6875 123.625 86.25 122.688L90.9375 115.75C91.125 115.375 91.3125 114.812 91.3125 114.25L91.5 106H61.5V114.25Z" fill="#E74011"/>
</svg>
