<svg width="152" height="153" viewBox="0 0 152 153" fill="none" xmlns="http://www.w3.org/2000/svg">
<rect width="152" height="152" transform="translate(0 0.5)" fill="white"/>
<path d="M97 88.5H85C81.625 88.5 79 91.3125 79 94.5V118.5C79 121.875 81.625 124.5 85 124.5H97C100.188 124.5 103 121.875 103 118.5V94.5C103 91.3125 100.188 88.5 97 88.5ZM94 115.5H88V97.5H94V115.5ZM127 64.5H115C111.625 64.5 109 67.3125 109 70.5V118.5C109 121.875 111.625 124.5 115 124.5H127C130.188 124.5 133 121.875 133 118.5V70.5C133 67.3125 130.188 64.5 127 64.5ZM124 115.5H118V73.5H124V115.5ZM67 64.5H55C51.625 64.5 49 67.3125 49 70.5V118.5C49 121.875 51.625 124.5 55 124.5H67C70.1875 124.5 73 121.875 73 118.5V70.5C73 67.3125 70.1875 64.5 67 64.5ZM64 115.5H58V73.5H64V115.5ZM37 94.5H25C21.625 94.5 19 97.3125 19 100.5V118.5C19 121.875 21.625 124.5 25 124.5H37C40.1875 124.5 43 121.875 43 118.5V100.5C43 97.3125 40.1875 94.5 37 94.5ZM34 115.5H28V103.5H34V115.5ZM31 76.5C35.875 76.5 40 72.5625 40 67.5C40 66.75 39.8125 66 39.625 65.25L58.5625 46.3125C59.3125 46.5 60.0625 46.5 61 46.5C62.125 46.5 63.0625 46.3125 64.1875 45.9375L82 60.1875C82 60.75 82 61.125 82 61.5C82 66.5625 85.9375 70.5 91 70.5C95.875 70.5 100 66.5625 100 61.5C100 61.125 99.8125 60.75 99.8125 60.1875L117.625 45.9375C118.75 46.3125 119.688 46.5 121 46.5C125.875 46.5 130 42.5625 130 37.5C130 32.625 125.875 28.5 121 28.5C115.938 28.5 112 32.625 112 37.5C112 38.0625 112 38.4375 112 39L94.1875 53.25C93.0625 52.875 92.125 52.5 90.8125 52.5C89.6875 52.5 88.75 52.875 87.625 53.25L69.8125 39C69.8125 38.4375 70 38.0625 70 37.5C70 32.625 65.875 28.5 61 28.5C55.9375 28.5 52 32.625 52 37.5C52 38.4375 52 39.1875 52.1875 39.9375L33.25 58.875C32.5 58.6875 31.75 58.5 31 58.5C25.9375 58.5 22 62.625 22 67.5C22 72.5625 25.9375 76.5 31 76.5Z" fill="#E74011"/>
</svg>
