<svg width="152" height="153" viewBox="0 0 152 153" fill="none" xmlns="http://www.w3.org/2000/svg">
<rect width="152" height="152" transform="translate(0 0.5)" fill="white"/>
<path d="M52 70.5C48.625 70.5 46 73.3125 46 76.5C46 79.875 48.625 82.5 52 82.5C55.1875 82.5 58 79.875 58 76.5C58 73.3125 55.1875 70.5 52 70.5ZM106.375 39.5625C95.3125 30.375 80.6875 26.625 66.25 29.4375C47.5 33.1875 32.5 48.1875 28.9375 66.75C25.75 82.5 30.4375 98.25 41.5 110.062C50.5 119.25 62.125 124.688 73 124.688C74.6875 124.688 76.375 124.5 77.875 124.312C82.5625 123.562 86.3125 120.75 88.5625 116.438C90.8125 111.938 90.8125 106.688 88.5625 102.188C87.4375 99.9375 87.4375 97.3125 88.9375 95.0625C90.25 92.8125 92.3125 91.5 94.9375 91.5H108.438C117.062 91.5 124 84.9375 124 76.3125C123.812 62.0625 117.438 48.5625 106.375 39.5625ZM108.438 82.5H94.9375C89.3125 82.5 84.0625 85.5 81.25 90.375C78.25 95.25 77.875 101.25 80.5 106.312C81.4375 108.188 81.4375 110.438 80.5 112.5C79.9375 113.438 78.8125 114.938 76.5625 115.312C67.375 116.812 56.125 112.312 48.0625 103.875C38.875 94.3125 35.125 81.375 37.75 68.625C40.75 53.4375 52.9375 41.25 67.9375 38.4375C79.75 36 91.5625 39 100.75 46.5C109.75 53.8125 114.812 64.6875 115 76.3125C115 79.875 112 82.5 108.438 82.5ZM58 52.5C54.625 52.5 52 55.3125 52 58.5C52 61.875 54.625 64.5 58 64.5C61.1875 64.5 64 61.875 64 58.5C64 55.3125 61.1875 52.5 58 52.5ZM76 46.5C72.625 46.5 70 49.3125 70 52.5C70 55.875 72.625 58.5 76 58.5C79.1875 58.5 82 55.875 82 52.5C82 49.3125 79.1875 46.5 76 46.5ZM94 52.5C90.625 52.5 88 55.3125 88 58.5C88 61.875 90.625 64.5 94 64.5C97.1875 64.5 100 61.875 100 58.5C100 55.3125 97.1875 52.5 94 52.5Z" fill="#E74011"/>
</svg>
