<svg width="152" height="153" viewBox="0 0 152 153" fill="none" xmlns="http://www.w3.org/2000/svg">
<rect width="152" height="152" transform="translate(0 0.5)" fill="white"/>
<path d="M121.188 81C122.875 79.875 124 78 124 75.9375V64.5C124 61.3125 121.188 58.5 118 58.5H82C78.625 58.5 76 61.3125 76 64.5V75.9375C76 78 76.9375 79.875 78.25 80.8125L83.5 84.75V98.8125C82.5625 99.5625 82 100.688 82 102V106.5L77.125 110.25C76.375 110.812 76 111.562 76 112.5C76 111.562 75.4375 110.812 74.6875 110.25L70 106.5V102C69.8125 100.125 68.5 98.4375 66.8125 97.875C66.0625 93.1875 65.5 88.5 65.5 83.8125V76.5H67C68.5 76.5 70 75.1875 70 73.5V70.5C70 69 68.5 67.5 67 67.5H66.25L71.3125 52.5C71.5 52.125 71.6875 51.5625 71.6875 51.1875C71.6875 48.5625 69.625 46.6875 67.1875 46.6875V46.5H55V40.5H59.5C60.4375 40.5 61 39.9375 61 39V36C61 35.25 60.4375 34.5 59.5 34.5H55V30C55 29.25 54.4375 28.5 53.5 28.5H50.5C49.75 28.5 49 29.25 49 30V34.5H44.5C43.75 34.5 43 35.25 43 36V39C43 39.9375 43.75 40.5 44.5 40.5H49V46.5H37C34.5625 46.5 32.5 48.5625 32.5 51C32.5 51.5625 32.5 52.125 32.6875 52.5L37.75 67.5H37C35.3125 67.5 34 69 34 70.5V73.5C34 75.1875 35.3125 76.5 37 76.5H38.5V83.625C38.5 88.5 38.125 93.1875 37.375 97.875C35.3125 98.25 34 99.9375 34 102V106.5L29.125 110.25C28.375 110.812 28 111.562 28 112.5V121.5C28 123.188 29.3125 124.5 31 124.5H73C74.5 124.5 76 123.188 76 121.5C76 123.188 77.3125 124.5 79 124.5H121C122.5 124.5 124 123.188 124 121.5V112.5C124 111.562 123.438 110.812 122.688 110.25L118 106.5V102C117.812 100.688 117.25 99.5625 116.5 98.8125V84.75L121.188 81ZM60.8125 55.5L57.8125 64.6875L56.875 67.5H47.3125L46.375 64.6875L43.1875 55.5H60.8125ZM57.625 97.5H46.375C47.125 92.8125 47.5 88.125 47.5 83.625V76.5H56.5V83.625C56.5 88.125 57.0625 92.8125 57.625 97.5ZM37 115.5L39.25 113.812L43 111V106.5H61V111L64.5625 113.812L67 115.5H37ZM85 115.5L87.25 113.812L91 111V106.5H109V111L112.562 113.812L115 115.5H85ZM115 74.4375L107.5 80.4375V97.5H92.5V80.4375L85 74.4375V67.5H91V72H97V67.5H103V72H109V67.5H115V74.4375ZM100 82.5C98.3125 82.5 97 84 97 85.5V91.5H103V85.5C103 84 101.5 82.5 100 82.5Z" fill="#E74011"/>
</svg>
