<svg width="153" height="152" viewBox="0 0 153 152" fill="none" xmlns="http://www.w3.org/2000/svg">
<rect width="152" height="152" transform="translate(0.5)" fill="white"/>
<path d="M90.9375 70.375C90.1875 69.625 89.0625 69.625 88.3125 70.375L71.8125 86.6875L64.6875 79.5625C63.9375 78.8125 62.625 78.8125 62.0625 79.5625L57.5625 83.875C56.8125 84.625 56.8125 85.75 57.5625 86.5L70.3125 99.4375C71.0625 100.188 72.375 100.188 72.9375 99.625L95.25 77.5C96 76.75 96 75.625 95.25 74.875L90.9375 70.375ZM103.5 40H88.5C88.5 33.4375 83.0625 28 76.5 28C69.75 28 64.5 33.4375 64.5 40H49.5C44.4375 40 40.5 44.125 40.5 49V115C40.5 120.062 44.4375 124 49.5 124H103.5C108.375 124 112.5 120.062 112.5 115V49C112.5 44.125 108.375 40 103.5 40ZM76.5 37C78 37 79.5 38.5 79.5 40C79.5 41.6875 78 43 76.5 43C74.8125 43 73.5 41.6875 73.5 40C73.5 38.5 74.8125 37 76.5 37ZM103.5 113.5C103.5 114.438 102.75 115 102 115H51C50.0625 115 49.5 114.438 49.5 113.5V50.5C49.5 49.75 50.0625 49 51 49H58.5V55C58.5 56.6875 59.8125 58 61.5 58H91.5C93 58 94.5 56.6875 94.5 55V49H102C102.75 49 103.5 49.75 103.5 50.5V113.5Z" fill="#E74011"/>
</svg>
