<svg width="152" height="153" viewBox="0 0 152 153" fill="none" xmlns="http://www.w3.org/2000/svg">
<rect width="152" height="152" transform="translate(0 0.5)" fill="white"/>
<path d="M123.812 46.5C122.688 46.5 121.562 46.875 120.438 47.625L100 60.5625V49.5C100 44.625 95.5 40.5 90.25 40.5H31.5625C26.3125 40.5 22 44.625 22 49.5V103.688C22 108.562 26.3125 112.5 31.5625 112.5H90.25C95.5 112.5 100 108.562 100 103.688V92.625L120.438 105.562C121.562 106.312 122.688 106.5 123.812 106.5C127 106.5 130 104.062 130 100.688V52.5C130 48.9375 127 46.5 123.812 46.5ZM91 66V103.312C90.8125 103.5 90.625 103.5 90.25 103.5H31.5625C31.1875 103.5 31 103.5 31 103.312V49.875C31 49.6875 31.1875 49.5 31.5625 49.5H90.25C90.625 49.5 90.8125 49.6875 91 49.875V66ZM121 95.25L100 82.125V71.0625L121 57.9375V95.25Z" fill="#E74011"/>
</svg>
