<svg width="152" height="153" viewBox="0 0 152 153" fill="none" xmlns="http://www.w3.org/2000/svg">
<rect width="152" height="152" transform="translate(0 0.5)" fill="white"/>
<path d="M75.375 73.6875L35.0625 85.125C32.25 85.875 32.0625 89.8125 34.6875 91.125L47.4375 97.3125L30.75 114C29.625 115.125 29.625 117 30.75 118.125L34.875 122.25C36 123.375 37.875 123.375 39 122.25L55.6875 105.562L61.875 118.312C63.1875 120.938 67.125 120.75 67.875 117.938L79.3125 77.625C80.0625 75.1875 77.8125 73.125 75.375 73.6875ZM80.4375 95.625L77.8125 105C92.8125 104.25 105 91.875 105 76.5C105 60.75 92.25 48 76.5 48C61.125 48 48.75 60.1875 48 75.1875L57.375 72.5625C59.25 63.75 67.125 57 76.5 57C87.1875 57 96 65.8125 96 76.5C96 85.875 89.25 93.75 80.4375 95.625ZM76.5 30C50.8125 30 30 51 30 76.5C30 78 30 79.3125 30.1875 80.625C30.75 80.25 31.5 79.875 32.25 79.6875L39 77.8125C39 77.4375 39 77.0625 39 76.5C39 55.875 55.6875 39 76.5 39C97.125 39 114 55.875 114 76.5C114 97.3125 97.125 114 76.5 114C75.9375 114 75.5625 114 75.1875 114L73.3125 120.75C73.125 121.5 72.75 122.25 72.375 122.812C73.6875 123 75 123 76.5 123C102 123 123 102.188 123 76.5C123 51 102 30 76.5 30Z" fill="#E74011"/>
</svg>
