<svg width="152" height="153" viewBox="0 0 152 153" fill="none" xmlns="http://www.w3.org/2000/svg">
<rect width="152" height="152" transform="translate(0 0.5)" fill="white"/>
<path d="M122.125 97.6875L99.0625 74.625L109.562 64.125L120.438 53.25C125.125 48.5625 125.125 41.0625 120.438 36.375L116.125 32.0625C113.875 29.8125 110.688 28.5 107.688 28.5C104.5 28.5 101.5 29.8125 99.25 32.0625L88.375 42.9375L77.875 53.4375L71.125 46.5L54.8125 30.375C53.6875 29.25 52.1875 28.5 50.6875 28.5C49.1875 28.5 47.6875 29.25 46.5625 30.375L29.6875 47.25C27.25 49.5 27.25 53.25 29.6875 55.5L48.4375 74.4375L52.75 78.5625L31.5625 99.75L28 120C27.625 122.438 29.5 124.5 31.9375 124.5C32.125 124.5 32.3125 124.5 32.5 124.5L52.75 120.938L73.9375 99.75L97 122.812C98.125 123.938 99.625 124.5 101.125 124.5C102.625 124.5 104.125 123.938 105.438 122.812L122.125 105.938C124.562 103.688 124.562 99.9375 122.125 97.6875ZM105.625 38.4375C106.375 37.6875 107.125 37.5 107.688 37.5C108.062 37.5 109 37.6875 109.75 38.4375L114.062 42.75C114.812 43.5 114.812 44.4375 114.812 44.8125C114.812 45.375 114.812 46.125 114.062 46.875L104.312 56.625L95.875 48.1875L105.625 38.4375ZM54.8125 68.0625L38.125 51.375L50.6875 38.8125L58 46.125L53.875 50.25C52.75 51.375 52.75 53.4375 53.875 54.5625L55.9375 56.625C57.0625 57.75 59.125 57.75 60.25 56.625L64.375 52.5L64.75 52.875L71.5 59.8125L59.125 72.1875L54.8125 68.0625ZM48.4375 112.688L38.125 114.375L39.8125 104.062L89.5 54.5625L97.9375 63L48.4375 112.688ZM101.125 114.375L80.3125 93.375L92.6875 81L100 88.125L95.875 92.25C94.75 93.375 94.75 95.4375 95.875 96.5625L97.9375 98.625C99.0625 99.75 101.125 99.75 102.25 98.625L106.375 94.5L113.688 101.812L101.125 114.375Z" fill="#E74011"/>
</svg>
