<svg width="153" height="152" viewBox="0 0 153 152" fill="none" xmlns="http://www.w3.org/2000/svg">
<rect width="152" height="152" transform="translate(0.5)" fill="white"/>
<path d="M97.5 88H85.5C82.125 88 79.5 90.8125 79.5 94V118C79.5 121.375 82.125 124 85.5 124H97.5C100.688 124 103.5 121.375 103.5 118V94C103.5 90.8125 100.688 88 97.5 88ZM94.5 115H88.5V97H94.5V115ZM127.5 64H115.5C112.125 64 109.5 66.8125 109.5 70V118C109.5 121.375 112.125 124 115.5 124H127.5C130.688 124 133.5 121.375 133.5 118V70C133.5 66.8125 130.688 64 127.5 64ZM124.5 115H118.5V73H124.5V115ZM67.5 64H55.5C52.125 64 49.5 66.8125 49.5 70V118C49.5 121.375 52.125 124 55.5 124H67.5C70.6875 124 73.5 121.375 73.5 118V70C73.5 66.8125 70.6875 64 67.5 64ZM64.5 115H58.5V73H64.5V115ZM37.5 94H25.5C22.125 94 19.5 96.8125 19.5 100V118C19.5 121.375 22.125 124 25.5 124H37.5C40.6875 124 43.5 121.375 43.5 118V100C43.5 96.8125 40.6875 94 37.5 94ZM34.5 115H28.5V103H34.5V115ZM31.5 76C36.375 76 40.5 72.0625 40.5 67C40.5 66.25 40.3125 65.5 40.125 64.75L59.0625 45.8125C59.8125 46 60.5625 46 61.5 46C62.625 46 63.5625 45.8125 64.6875 45.4375L82.5 59.6875C82.5 60.25 82.5 60.625 82.5 61C82.5 66.0625 86.4375 70 91.5 70C96.375 70 100.5 66.0625 100.5 61C100.5 60.625 100.312 60.25 100.312 59.6875L118.125 45.4375C119.25 45.8125 120.188 46 121.5 46C126.375 46 130.5 42.0625 130.5 37C130.5 32.125 126.375 28 121.5 28C116.438 28 112.5 32.125 112.5 37C112.5 37.5625 112.5 37.9375 112.5 38.5L94.6875 52.75C93.5625 52.375 92.625 52 91.3125 52C90.1875 52 89.25 52.375 88.125 52.75L70.3125 38.5C70.3125 37.9375 70.5 37.5625 70.5 37C70.5 32.125 66.375 28 61.5 28C56.4375 28 52.5 32.125 52.5 37C52.5 37.9375 52.5 38.6875 52.6875 39.4375L33.75 58.375C33 58.1875 32.25 58 31.5 58C26.4375 58 22.5 62.125 22.5 67C22.5 72.0625 26.4375 76 31.5 76Z" fill="#E74011"/>
</svg>
